<svg width="60" height="60" viewBox="0 0 60 60" fill="none" xmlns="http://www.w3.org/2000/svg">
<circle cx="30" cy="30" r="30" fill="black"/>
<path d="M22.2929 36.2929C21.9024 36.6834 21.9024 37.3166 22.2929 37.7071C22.6834 38.0976 23.3166 38.0976 23.7071 37.7071L22.2929 36.2929ZM38 23C38 22.4477 37.5523 22 37 22L28 22C27.4477 22 27 22.4477 27 23C27 23.5523 27.4477 24 28 24L36 24L36 32C36 32.5523 36.4477 33 37 33C37.5523 33 38 32.5523 38 32L38 23ZM23.7071 37.7071L37.7071 23.7071L36.2929 22.2929L22.2929 36.2929L23.7071 37.7071Z" fill="white"/>
</svg>
